# xmcd
#
# Track frame offsets:
# 150
# 14368
# 27245
# 55358
# 68688
# 81674
# 102199
# 114980
# 132673
# 145428
# 186297
# 201953
# 220472
# 233632
# 249223
# 273408
# 285829
# 296399
# 309568
# 324222
#
# Disc length: 4647 seconds
#
#
# Revision: 2
# Processed by: cddbd v1.5.1PL2 Copyright (c) Steve Scherf et al.
# Submitted via: FreeRIP 2.30 
#
DISCID=29122514
DTITLE=Fleetwood Mac - The Best Of Peter Green's Fleetwood Mac
DYEAR=2002
DGENRE=Blues
TTITLE0=Albatross
TTITLE1=Black Magic Woman
TTITLE2=Need Your Love So Bad
TTITLE3=My Heart Beat Like A Hammer
TTITLE4=Rollin' Man
TTITLE5=The Green Manalishi
TTITLE6=Man Of The World
TTITLE7=Something Inside Me
TTITLE8=Looking For Somebody
TTITLE9=Oh Well Part I+II
TTITLE10=Rattlesnake Shake
TTITLE11=Merry Go Round
TTITLE12=I Loved Another Woman
TTITLE13=Need Your Love Tonight
TTITLE14=Worried Dream
TTITLE15=Dragonfly
TTITLE16=Stop Messin' Around
TTITLE17=Shake Your Moneymaker
TTITLE18=I'd Rather Go Blind (Chicken Shack)
TTITLE19=Albatross (Chris Coco feat. P. Green)
EXTD=Columbia 510155 2
EXTT0=
EXTT1=
EXTT2=
EXTT3=
EXTT4=
EXTT5=
EXTT6=
EXTT7=
EXTT8=
EXTT9=
EXTT10=
EXTT11=
EXTT12=
EXTT13=
EXTT14=
EXTT15=
EXTT16=
EXTT17=
EXTT18=
EXTT19=
PLAYORDER=
